<svg xmlns="http://www.w3.org/2000/svg" viewBox="0 0 512 512">
  <defs>
    <radialGradient id="bg" cx="38%" cy="32%" r="72%">
      <stop offset="0%" stop-color="#4E7A63"/>
      <stop offset="100%" stop-color="#2E4A3A"/>
    </radialGradient>
  </defs>
  <!-- Full bleed background -->
  <rect width="512" height="512" fill="url(#bg)"/>

  <!-- Main pad — wide rounded shape using bezier curves -->
  <path d="
    M256,392
    C205,392 152,354 140,306
    C128,258 155,220 198,214
    C218,211 238,222 256,222
    C274,222 294,211 314,214
    C357,220 384,258 372,306
    C360,354 307,392 256,392 Z
  " fill="#EEE8DF"/>

  <!-- Toe pads — four small round beans -->
  <ellipse cx="155" cy="192" rx="36" ry="44" transform="rotate(-18,155,192)" fill="#EEE8DF"/>
  <ellipse cx="212" cy="156" rx="33" ry="41" transform="rotate(-7,212,156)"  fill="#EEE8DF"/>
  <ellipse cx="300" cy="156" rx="33" ry="41" transform="rotate(7,300,156)"   fill="#EEE8DF"/>
  <ellipse cx="357" cy="192" rx="36" ry="44" transform="rotate(18,357,192)"  fill="#EEE8DF"/>

  <!-- Subtle terracotta centre -->
  <ellipse cx="256" cy="310" rx="30" ry="25" fill="rgba(196,113,74,0.32)"/>
</svg>
